<svg width="9" height="6" viewBox="0 0 9 6" fill="none" xmlns="http://www.w3.org/2000/svg">
<path d="M0.943734 1.98244L4.00293 5.03691C4.06922 5.10443 4.14809 5.15802 4.23499 5.1946C4.32188 5.23117 4.41509 5.25 4.50923 5.25C4.60336 5.25 4.69657 5.23117 4.78347 5.1946C4.87037 5.15802 4.94924 5.10443 5.01553 5.03691L8.03907 1.98244C8.1059 1.91547 8.15896 1.8358 8.19516 1.74801C8.23136 1.66022 8.25 1.56606 8.25 1.47096C8.25 1.37586 8.23136 1.2817 8.19516 1.19392C8.15896 1.10613 8.1059 1.02645 8.03907 0.959485C7.90546 0.825311 7.72472 0.75 7.53633 0.75C7.34794 0.75 7.16721 0.825311 7.0336 0.959484L4.50923 3.50968L1.98486 0.959484C1.85204 0.826396 1.67276 0.751366 1.48569 0.75057C1.39184 0.750022 1.29881 0.768194 1.21193 0.804044C1.12504 0.839894 1.04602 0.892717 0.979388 0.959484C0.910164 1.02404 0.85429 1.10182 0.814994 1.18832C0.775697 1.27483 0.753757 1.36834 0.750442 1.46345C0.747126 1.55857 0.762502 1.65341 0.795678 1.74249C0.828855 1.83157 0.879176 1.91312 0.943734 1.98244Z" fill="#C4D6F0"/>
</svg>
