<svg width="170" height="21" viewBox="0 0 170 21" fill="none" xmlns="http://www.w3.org/2000/svg">
<path d="M42.6252 8.50024H34.1002L30.5898 12.5002H42.6252V8.50024Z" fill="#C6E0F1"/>
<path d="M43.1268 4.00024L46.6371 0.000244141H30.0884L26.5781 4.00024V21.0002H43.1268L46.6371 17.0002H30.5899V4.00024H43.1268Z" fill="#C6E0F1"/>
<path d="M66.1947 13.0002L69.705 9.00024V0.000244141H57.1681L53.6578 4.00024H65.6932V9.00024H53.6578V0.000244141H49.646V21.0002H53.6578V13.0002H58.1711L65.1917 21.0002H70.2065L63.1858 13.0002H66.1947Z" fill="#C6E0F1"/>
<path d="M97.7876 17.0002V21.0002H114.336L117.847 17.0002V8.50024H113.835V17.0002H97.7876Z" fill="#C6E0F1"/>
<path d="M113.835 8.50024H105.31L101.799 12.5002H110.324L113.835 8.50024Z" fill="#C6E0F1"/>
<path d="M97.7876 4.00024V12.5002H101.799V4.00024H117.847V0.000244141H101.298L97.7876 4.00024Z" fill="#C6E0F1"/>
<path d="M73.7168 4.00024V21.0002H90.2655L93.7758 17.0002V0.000244141H77.2271L73.7168 4.00024ZM77.7286 4.00024H89.764V17.0002H77.7286V4.00024Z" fill="#C6E0F1"/>
<path d="M137.404 17.0002H125.87V0.000244141L121.858 4.50024V21.0002H137.906L141.416 17.0002V0.000244141L137.404 4.50024V17.0002Z" fill="#C6E0F1"/>
<path d="M0 0.000244141L3.51032 4.00024H15.0202L0 21.0002H5.51622L9.05062 17.0002L24.0708 0.000244141H0Z" fill="#C6E0F1"/>
<path d="M24.071 21.0002L20.5606 17.0002H9.05078L12.5611 21.0002H24.071Z" fill="#C6E0F1"/>
<path d="M165.487 5.10824L170 0.000244141H164.484L157.463 7.94624L150.442 0.000244141H144.926L149.44 5.10824L145.428 9.10824V16.5002V21.0002H149.44V16.5002V10.0002V5.10824L157.463 14.1894L165.487 5.10824V9.10824V16.5002V21.0002H169.499V16.5002V9.10824L165.487 5.10824Z" fill="#C6E0F1"/>
</svg>
