<svg width="29" height="28" viewBox="0 0 29 28" fill="none" xmlns="http://www.w3.org/2000/svg">
    <path d="M14.9688 23.9513C12.2505 23.9513 9.53215 23.5196 6.95382 22.6563C5.97382 22.3179 5.22715 21.6296 4.90049 20.7313C4.56215 19.8329 4.67882 18.8413 5.21549 17.9546L6.55715 15.7263C6.83715 15.2596 7.09382 14.3263 7.09382 13.7779V10.4063C7.09382 6.06625 10.6288 2.53125 14.9688 2.53125C19.3088 2.53125 22.8438 6.06625 22.8438 10.4063V13.7779C22.8438 14.3146 23.1005 15.2596 23.3805 15.7379L24.7105 17.9546C25.2122 18.7946 25.3055 19.8096 24.9671 20.7313C24.6288 21.6529 23.8938 22.3529 22.9722 22.6563C20.4055 23.5196 17.6872 23.9513 14.9688 23.9513ZM14.9688 4.28125C11.5972 4.28125 8.84382 7.02292 8.84382 10.4063V13.7779C8.84382 14.6296 8.49382 15.8896 8.06215 16.6246L6.72048 18.8529C6.46382 19.2846 6.39382 19.7396 6.54549 20.1246C6.68549 20.5213 7.03549 20.8246 7.51382 20.9879C12.3905 22.6213 17.5588 22.6213 22.4355 20.9879C22.8555 20.8479 23.1822 20.5329 23.3338 20.1129C23.4855 19.6929 23.4505 19.2379 23.2172 18.8529L21.8755 16.6246C21.4322 15.8663 21.0938 14.6179 21.0938 13.7663V10.4063C21.0938 7.02292 18.3522 4.28125 14.9688 4.28125Z"
          fill="#4A607F"/>
    <path d="M17.1377 4.59695C17.0561 4.59695 16.9744 4.58529 16.8927 4.56195C16.5544 4.46862 16.2277 4.39862 15.9127 4.35195C14.9211 4.22362 13.9644 4.29362 13.0661 4.56195C12.7394 4.66695 12.3894 4.56195 12.1677 4.31695C11.9461 4.07195 11.8761 3.72195 12.0044 3.40695C12.4827 2.18195 13.6494 1.37695 14.9794 1.37695C16.3094 1.37695 17.4761 2.17029 17.9544 3.40695C18.0711 3.72195 18.0127 4.07195 17.7911 4.31695C17.6161 4.50362 17.3711 4.59695 17.1377 4.59695Z"
          fill="#4A607F"/>
    <path d="M14.9678 26.6113C13.8128 26.6113 12.6928 26.1447 11.8761 25.328C11.0594 24.5113 10.5928 23.3913 10.5928 22.2363H12.3428C12.3428 22.9247 12.6228 23.6013 13.1128 24.0913C13.6028 24.5813 14.2794 24.8613 14.9678 24.8613C16.4144 24.8613 17.5928 23.683 17.5928 22.2363H19.3428C19.3428 24.6513 17.3828 26.6113 14.9678 26.6113Z"
          fill="#4A607F"/>
    <path d="M16.7764 7.875C16.7764 10.5661 18.9602 12.75 21.6514 12.75C24.3425 12.75 26.5264 10.5661 26.5264 7.875C26.5264 5.18386 24.3425 3 21.6514 3C18.9602 3 16.7764 5.18386 16.7764 7.875ZM19.5264 7.875C19.5264 6.70448 20.4808 5.75 21.6514 5.75C22.8219 5.75 23.7764 6.70448 23.7764 7.875C23.7764 9.04552 22.8219 10 21.6514 10C20.4808 10 19.5264 9.04552 19.5264 7.875Z"
          fill="#c6e0f1" stroke="#080D15"/>
    <circle cx="21.4443" cy="7.5" r="3.5" fill="#c6e0f1"/>
</svg>
