<svg width="24" height="24" viewBox="0 0 24 24" fill="none" xmlns="http://www.w3.org/2000/svg">
<g opacity="0.5">
<path d="M14.439 21H9.56098C4.26341 21 2 18.7395 2 13.4487V9.55128C2 4.26051 4.26341 2 9.56098 2H14.439C19.7366 2 22 4.26051 22 9.55128V13.4487C22 18.7395 19.7366 21 14.439 21ZM9.56098 3.46154C5.06341 3.46154 3.46341 5.05949 3.46341 9.55128V13.4487C3.46341 17.9405 5.06341 19.5385 9.56098 19.5385H14.439C18.9366 19.5385 20.5366 17.9405 20.5366 13.4487V9.55128C20.5366 5.05949 18.9366 3.46154 14.439 3.46154H9.56098Z" fill="#C6E0F1"/>
<path d="M8.50746 10C7.68657 10 7 9.325 7 8.5C7 7.675 7.65672 7 8.47761 7H8.50746C9.32836 7 10 7.675 10 8.5C10 9.325 9.34328 10 8.50746 10Z" fill="#C6E0F1"/>
<path d="M15.5075 10C14.6866 10 14 9.325 14 8.5C14 7.675 14.6567 7 15.4776 7H15.5075C16.3284 7 17 7.675 17 8.5C17 9.325 16.3433 10 15.5075 10Z" fill="#C6E0F1"/>
<path d="M8.50746 16C7.68657 16 7 15.325 7 14.5C7 13.675 7.65672 13 8.47761 13H8.50746C9.32836 13 10 13.675 10 14.5C10 15.325 9.34328 16 8.50746 16Z" fill="#C6E0F1"/>
<path d="M15.5075 16C14.6866 16 14 15.325 14 14.5C14 13.675 14.6567 13 15.4776 13H15.5075C16.3284 13 17 13.675 17 14.5C17 15.325 16.3433 16 15.5075 16Z" fill="#C6E0F1"/>
</g>
</svg>
