<svg width="24" height="24" viewBox="0 0 24 24" fill="none" xmlns="http://www.w3.org/2000/svg">
<g opacity="0.5">
<path fill-rule="evenodd" clip-rule="evenodd" d="M21.6131 2.64386C21.6595 2.36512 21.5685 2.08111 21.3687 1.88129C21.1689 1.68148 20.8849 1.59046 20.6062 1.63692L15.3562 2.51192C15.1435 2.54736 14.9514 2.66006 14.8167 2.8284L8.42745 10.815L7.36872 9.75629C7.02701 9.41458 6.47299 9.41458 6.13128 9.75629C5.78957 10.098 5.78957 10.652 6.13128 10.9937L7.26259 12.125L2.63128 16.7563C2.28957 17.0981 2.28957 17.6521 2.63128 17.9938L5.25628 20.6188C5.59799 20.9605 6.15201 20.9605 6.49372 20.6188L11.125 15.9875L12.2563 17.1187C12.598 17.4604 13.152 17.4604 13.4937 17.1187C13.8354 16.777 13.8354 16.223 13.4937 15.8813L12.435 14.8226L20.4216 8.43327C20.59 8.2986 20.7027 8.10651 20.7381 7.89386L21.6131 2.64386ZM9.88759 14.75L8.50003 13.3625L7.98744 13.8751L9.375 15.2626L9.88759 14.75ZM11.1899 13.5775L9.6725 12.0601L15.9741 4.18306L19.6855 3.56449L19.0669 7.27591L11.1899 13.5775ZM6.75 15.1125L8.13756 16.5001L7.625 17.0126L6.23744 15.6251L6.75 15.1125ZM5 16.8625L6.38756 18.2501L5.875 18.7626L4.48744 17.3751L5 16.8625Z" fill="#C6E0F1"/>
</g>
</svg>
